<svg width="20" height="20" viewBox="0 0 20 20" fill="none" xmlns="http://www.w3.org/2000/svg">
<path d="M18.5192 0H1.47667C0.66 0 0 0.644167 0 1.44167V18.555C0 19.3517 0.66 20 1.47667 20H18.5192C19.3358 20 20 19.3517 20 18.5583V1.44167C20 0.644167 19.3358 0 18.5192 0ZM5.93333 17.0433H2.965V7.49583H5.93333V17.0433ZM4.45 6.195C4.21878 6.20382 3.98815 6.16589 3.77192 6.08349C3.5557 6.00109 3.35833 5.87591 3.19162 5.71544C3.02491 5.55497 2.89229 5.36251 2.80171 5.14958C2.71113 4.93666 2.66444 4.70764 2.66444 4.47625C2.66444 4.24486 2.71113 4.01584 2.80171 3.80292C2.89229 3.58999 3.02491 3.39753 3.19162 3.23706C3.35833 3.07659 3.5557 2.95141 3.77192 2.86901C3.98815 2.78661 4.21878 2.74868 4.45 2.7575C4.89929 2.76739 5.32684 2.95282 5.64109 3.27407C5.95535 3.59532 6.13132 4.02685 6.13132 4.47625C6.13132 4.92565 5.95535 5.35718 5.64109 5.67843C5.32684 5.99968 4.89929 6.18511 4.45 6.195ZM17.0433 17.0433H14.0783V12.4017C14.0783 11.2967 14.0583 9.87083 12.535 9.87083C10.9925 9.87083 10.7575 11.0783 10.7575 12.3242V17.0433H7.79667V7.49583H10.6408V8.80083H10.68C11.0742 8.05083 12.0433 7.2575 13.4842 7.2575C16.4883 7.2575 17.0425 9.23417 17.0425 11.805L17.0433 17.0433Z" fill="#EAEAE8"/>
</svg>
